<svg viewBox="0 0 200 200" xmlns="http://www.w3.org/2000/svg">
  <path d="m 142.09186,38.301897 v 4.6303 c -13.34217,0.11902 -13.13902,-0.901495 -19.00627,1.543436 -4.37833,1.824486 -7.76542,4.702615 -10.80406,9.260594 -4.15198,7.076439 -6.14157,13.730009 -7.71714,21.608082 l -1.54345,1.543434 c -4.318721,3.573946 -5.290834,5.95137 -7.71716,10.804026 v 1.543435 l 1.543404,3.086869 3.086894,4.630303 c 2.276092,2.585261 4.631282,4.657624 7.717162,6.173734 7.80205,0.17272 15.48587,-1.80926 23.1515,-3.08687 4.58083,8.16373 8.73531,14.87815 9.26059,24.69494 v 54.02019 c 0,0 -0.31957,3.57558 -3.08683,6.17371 -1.81514,1.70421 -3.55299,1.54344 -6.17376,1.54344 H 72.152278 c -2.491807,0.37965 -4.673798,-0.0435 -6.173752,-1.54344 -1.499945,-1.49994 -1.543449,-3.55294 -1.543449,-6.17371 v -44.7596 c 0,0 -0.164821,-2.07119 0,-3.08685 0.260607,-1.60592 1.543449,-4.63031 1.543449,-4.63031 l 4.630303,1.54344 7.717143,3.08687 c 4.813006,0.49406 9.732945,-0.80437 13.890909,-3.08687 1.913407,-1.05036 3.795002,-2.61371 4.630303,-4.6303 0.78753,-1.90126 0,-6.17374 0,-6.17374 v -1.54344 l -6.173708,-4.6303 c 1.821421,-2.71351 2.189052,-5.17453 1.543405,-7.71716 -1.432625,-5.801427 -5.560697,-9.841585 -10.803996,-12.347472 l -1.543449,-1.543434 6.173752,-12.347461 -12.34752,6.173723 -10.803996,6.173738 -9.260591,6.173737 C 38.327785,104.73022 26.425695,139.98264 25.849276,141.71194 H 13.501764 c 0,0 -2.068929,0.15026 -3.086848,0 -3.5626659,-0.52589 -4.4974252,-2.57166 -4.6302993,-7.71717 V 73.800875 C 6.1067875,71.306397 6.0214328,69.804987 7.0861703,68.218414 8.8427928,65.600859 11.416873,66.114487 13.501764,66.083703 H 67.521975 V 13.606957 c -0.1329,-2.288635 -0.0139,-4.3370314 1.543405,-6.1737297 1.807575,-1.6802026 3.911737,-1.5434359 6.173752,-1.5434359 h 58.650448 c 2.49181,-0.3796545 4.67379,0.043489 6.17375,1.5434359 1.49995,1.4999444 1.54347,3.5529417 1.54347,6.1737297 z m -29.81033,35.498978 c -0.21508,-2.172123 2.44755,-4.630303 4.6303,-4.630304 2.18275,-10e-7 4.84539,2.458179 4.63031,4.630304 -0.18279,1.845951 -2.77533,3.086869 -4.63031,3.086868 -1.85498,-10e-7 -4.44751,-1.240919 -4.6303,-3.086868 z m -35.498948,37.042395 1.54339,-1.54342 3.086913,-1.54345 3.086839,1.54345 1.543464,1.54342 -1.543464,1.54343 -3.086839,1.54344 -3.086913,-1.54344 z M 138.51989,67.627137 c 3.45202,3.652488 14.84924,21.055763 21.21432,9.822673 0.1929,-0.34044 5.62765,-4.726142 -13.49712,-20.626714 v -1.543434 h 1.54341 c 6.84172,5.597162 21.53073,13.988669 16.9778,24.694935 -1.11374,2.688795 -4.28223,5.227969 -6.17375,6.173738 -1.89152,0.945769 -5.85667,0.770636 -7.71716,0 -2.31208,-1.704151 -4.10752,-4.107505 -6.17375,-6.173738 l -3.08684,-4.630288 c -2.6366,-4.55459 -4.6303,-5.766338 -4.6303,-10.804041 z m 40.12931,-1.543434 c 3.87623,5.300318 7.84175,9.449872 10.804,15.434344 2.92962,6.24806 6.17348,12.346959 9.2606,18.521193 l 4.6303,9.26061 V 107.7564 73.800875 c 0,0 -0.51556,-4.309179 -3.08685,-6.173738 -1.31708,-0.955073 -2.85719,-1.543434 -4.63029,-1.543434 z"/>
</svg>
